<svg width="19" height="23" viewBox="0 0 19 23" fill="none" xmlns="http://www.w3.org/2000/svg">
<path d="M18.9411 5.14092L18.4274 3.61867C18.2318 3.03889 17.685 2.64934 17.067 2.64934H12.7501V1.25974C12.7501 0.565208 12.1789 0 11.4766 0H7.52337C6.82124 0 6.24992 0.565208 6.24992 1.25974V2.64934H1.93317C1.315 2.64934 0.768173 3.03889 0.572586 3.61867L0.0589495 5.14092C-0.0580121 5.48749 0.00126739 5.87125 0.217265 6.16763C0.433262 6.46401 0.782727 6.64107 1.15225 6.64107H1.68913L2.87082 21.0882C2.95867 22.1602 3.87875 23 4.96583 23H14.2739C15.3609 23 16.2811 22.1602 16.3688 21.088L17.5505 6.64107H17.8478C18.2173 6.64107 18.5667 6.46401 18.7827 6.16781C18.9987 5.87143 19.058 5.48749 18.9411 5.14092ZM7.613 1.34766H11.387V2.64934H7.613V1.34766ZM15.0101 20.9794C14.9793 21.3568 14.6559 21.6523 14.2739 21.6523H4.96583C4.58389 21.6523 4.26051 21.3568 4.22963 20.9794L3.05664 6.64107H16.183L15.0101 20.9794ZM1.44456 5.29341L1.86573 4.04507C1.87531 4.0163 1.90247 3.99699 1.93317 3.99699H17.067C17.0977 3.99699 17.1247 4.0163 17.1344 4.04507L17.5556 5.29341H1.44456Z" fill="#428584"/>
<path d="M12.836 20.9316C12.8481 20.9323 12.86 20.9325 12.8721 20.9325C13.2322 20.9325 13.5332 20.6535 13.552 20.2938L14.192 8.14698C14.2115 7.77532 13.9226 7.45823 13.5469 7.43893C13.1701 7.4191 12.8504 7.70513 12.8307 8.07679L12.1909 20.2236C12.1714 20.5952 12.4601 20.9123 12.836 20.9316Z" fill="#428584"/>
<path d="M5.47833 20.2954C5.49821 20.6546 5.79886 20.9325 6.15827 20.9325C6.17069 20.9325 6.18347 20.9322 6.19607 20.9315C6.57181 20.9113 6.85986 20.5937 6.83945 20.222L6.16909 8.07524C6.14868 7.70358 5.82744 7.41878 5.45153 7.43914C5.0758 7.45932 4.78774 7.77693 4.80815 8.14859L5.47833 20.2954Z" fill="#428584"/>
<path d="M9.5077 20.9326C9.88414 20.9326 10.1892 20.6309 10.1892 20.2587V8.11194C10.1892 7.73975 9.88414 7.43811 9.5077 7.43811C9.13126 7.43811 8.82617 7.73975 8.82617 8.11194V20.2587C8.82617 20.6309 9.13126 20.9326 9.5077 20.9326Z" fill="#428584"/>
</svg>
