<svg width="100" height="100" viewBox="0 0 100 100" fill="none" xmlns="http://www.w3.org/2000/svg">
<path fill-rule="evenodd" clip-rule="evenodd" d="M96 4H4V96H96V4ZM0 0V100H100V0H0Z" fill="#F9F9FD"/>
<path d="M6.62695 26.5156L11.375 39.9219L16.0977 26.5156H21.0996V45H17.2783V39.9473L17.6592 31.2256L12.6699 45H10.0547L5.07812 31.2383L5.45898 39.9473V45H1.65039V26.5156H6.62695Z" fill="#F9F9FD"/>
<path d="M34.4898 41.1914H27.8121L26.5426 45H22.4928L29.3736 26.5156H32.9029L39.8219 45H35.7721L34.4898 41.1914ZM28.8404 38.1064H33.4615L31.1383 31.1875L28.8404 38.1064Z" fill="#F9F9FD"/>
<path d="M47.7912 38.2334H44.757V45H40.9484V26.5156H47.8166C50.0002 26.5156 51.6844 27.0023 52.8693 27.9756C54.0542 28.9489 54.6467 30.3242 54.6467 32.1016C54.6467 33.3626 54.3716 34.4163 53.8215 35.2627C53.2798 36.1006 52.4546 36.7692 51.3459 37.2686L55.3449 44.8223V45H51.257L47.7912 38.2334ZM44.757 35.1484H47.8293C48.7857 35.1484 49.5262 34.9072 50.051 34.4248C50.5757 33.9339 50.8381 33.2611 50.8381 32.4062C50.8381 31.5345 50.5884 30.849 50.0891 30.3496C49.5982 29.8503 48.8407 29.6006 47.8166 29.6006H44.757V35.1484Z" fill="#F9F9FD"/>
<path d="M61.0037 45H57.1951V26.5156H61.0037V45Z" fill="#F9F9FD"/>
<path d="M78.977 45H75.1684L67.7543 32.8379V45H63.9457V26.5156H67.7543L75.1811 38.7031V26.5156H78.977V45Z" fill="#F9F9FD"/>
<path d="M92.3672 41.1914H85.6895L84.4199 45H80.3701L87.251 26.5156H90.7803L97.6992 45H93.6494L92.3672 41.1914ZM86.7178 38.1064H91.3389L89.0156 31.1875L86.7178 38.1064Z" fill="#F9F9FD"/>
<path d="M49.1719 69.1875L52.1309 62.7812H55.334L50.666 71.8438V77H47.6875V71.8438L43.0195 62.7812H46.2324L49.1719 69.1875Z" fill="#F9F9FD"/>
<path d="M62.5953 74.0703H57.4586L56.482 77H53.3668L58.6598 62.7812H61.3746L66.6969 77H63.5816L62.5953 74.0703ZM58.2496 71.6973H61.8043L60.0172 66.375L58.2496 71.6973Z" fill="#F9F9FD"/>
<path d="M71.2531 62.7812L74.9055 73.0938L78.5383 62.7812H82.3859V77H79.4465V73.1133L79.7395 66.4043L75.9016 77H73.8898L70.0617 66.4141L70.3547 73.1133V77H67.425V62.7812H71.2531Z" fill="#F9F9FD"/>
<path d="M92.5477 74.0703H87.4109L86.4344 77H83.3191L88.6121 62.7812H91.327L96.6492 77H93.534L92.5477 74.0703ZM88.202 71.6973H91.7566L89.9695 66.375L88.202 71.6973Z" fill="#F9F9FD"/>
<path d="M48.0977 82.7812L51.75 93.0938L55.3828 82.7812H59.2305V97H56.291V93.1133L56.584 86.4043L52.7461 97H50.7344L46.9062 86.4141L47.1992 93.1133V97H44.2695V82.7812H48.0977Z" fill="#F9F9FD"/>
<path d="M72.8688 90.2129C72.8688 91.6126 72.6214 92.8398 72.1266 93.8945C71.6318 94.9492 70.9221 95.763 69.9977 96.3359C69.0797 96.9089 68.025 97.1953 66.8336 97.1953C65.6552 97.1953 64.6038 96.9121 63.6793 96.3457C62.7548 95.7793 62.0387 94.972 61.5309 93.9238C61.023 92.8691 60.7659 91.6582 60.7594 90.291V89.5879C60.7594 88.1882 61.01 86.9577 61.5113 85.8965C62.0191 84.8288 62.732 84.0117 63.65 83.4453C64.5745 82.8724 65.6292 82.5859 66.8141 82.5859C67.999 82.5859 69.0504 82.8724 69.9684 83.4453C70.8928 84.0117 71.6057 84.8288 72.107 85.8965C72.6148 86.9577 72.8688 88.1849 72.8688 89.5781V90.2129ZM69.9 89.5684C69.9 88.0775 69.6331 86.9447 69.0992 86.1699C68.5654 85.3952 67.8036 85.0078 66.8141 85.0078C65.831 85.0078 65.0725 85.3919 64.5387 86.1602C64.0048 86.9219 63.7346 88.0417 63.7281 89.5195V90.2129C63.7281 91.6647 63.9951 92.791 64.5289 93.5918C65.0628 94.3926 65.831 94.793 66.8336 94.793C67.8167 94.793 68.5719 94.4089 69.0992 93.6406C69.6266 92.8659 69.8935 91.7396 69.9 90.2617V89.5684Z" fill="#F9F9FD"/>
<path d="M84.2609 85.1543H79.9055V97H76.9758V85.1543H72.6789V82.7812H84.2609V85.1543Z" fill="#F9F9FD"/>
<path d="M96.7469 90.2129C96.7469 91.6126 96.4995 92.8398 96.0047 93.8945C95.5099 94.9492 94.8003 95.763 93.8758 96.3359C92.9578 96.9089 91.9031 97.1953 90.7117 97.1953C89.5333 97.1953 88.4819 96.9121 87.5574 96.3457C86.6329 95.7793 85.9168 94.972 85.409 93.9238C84.9012 92.8691 84.644 91.6582 84.6375 90.291V89.5879C84.6375 88.1882 84.8881 86.9577 85.3895 85.8965C85.8973 84.8288 86.6102 84.0117 87.5281 83.4453C88.4526 82.8724 89.5073 82.5859 90.6922 82.5859C91.8771 82.5859 92.9285 82.8724 93.8465 83.4453C94.771 84.0117 95.4839 84.8288 95.9852 85.8965C96.493 86.9577 96.7469 88.1849 96.7469 89.5781V90.2129ZM93.7781 89.5684C93.7781 88.0775 93.5112 86.9447 92.9773 86.1699C92.4435 85.3952 91.6818 85.0078 90.6922 85.0078C89.7091 85.0078 88.9506 85.3919 88.4168 86.1602C87.8829 86.9219 87.6128 88.0417 87.6062 89.5195V90.2129C87.6062 91.6647 87.8732 92.791 88.407 93.5918C88.9409 94.3926 89.7091 94.793 90.7117 94.793C91.6948 94.793 92.45 94.4089 92.9773 93.6406C93.5047 92.8659 93.7716 91.7396 93.7781 90.2617V89.5684Z" fill="#F9F9FD"/>
</svg>
