<svg width="65" height="65" viewBox="0 0 65 65" fill="none" xmlns="http://www.w3.org/2000/svg">
<path fill-rule="evenodd" clip-rule="evenodd" d="M62.4 2.6H2.6V62.4H62.4V2.6ZM0 0V65H65V0H0Z" fill="#1D1D26"/>
<path d="M4.30752 17.2352L7.39375 25.9492L10.4635 17.2352H13.7147V29.25H11.2309V25.9657L11.4785 20.2966L8.23545 29.25H6.53555L3.30078 20.3049L3.54834 25.9657V29.25H1.07275V17.2352H4.30752Z" fill="#1D1D26"/>
<path d="M22.4184 26.7744H18.0779L17.2527 29.25H14.6203L19.0929 17.2352H21.3869L25.8842 29.25H23.2518L22.4184 26.7744ZM18.7463 24.7692H21.75L20.2399 20.2719L18.7463 24.7692Z" fill="#1D1D26"/>
<path d="M31.0643 24.8517H29.0921V29.25H26.6165V17.2352H31.0808C32.5001 17.2352 33.5949 17.5515 34.3651 18.1841C35.1353 18.8168 35.5203 19.7107 35.5203 20.866C35.5203 21.6857 35.3415 22.3706 34.984 22.9208C34.6319 23.4654 34.0955 23.9 33.3748 24.2246L35.9742 29.1345V29.25H33.3171L31.0643 24.8517ZM29.0921 22.8465H31.089C31.7107 22.8465 32.1921 22.6897 32.5331 22.3761C32.8742 22.057 33.0448 21.6197 33.0448 21.0641C33.0448 20.4974 32.8825 20.0518 32.5579 19.7272C32.2388 19.4027 31.7464 19.2404 31.0808 19.2404H29.0921V22.8465Z" fill="#1D1D26"/>
<path d="M39.6524 29.25H37.1768V17.2352H39.6524V29.25Z" fill="#1D1D26"/>
<path d="M51.335 29.25H48.8594L44.0403 21.3446V29.25H41.5647V17.2352H44.0403L48.8677 25.157V17.2352H51.335V29.25Z" fill="#1D1D26"/>
<path d="M60.0387 26.7744H55.6981L54.8729 29.25H52.2406L56.7131 17.2352H59.0072L63.5045 29.25H60.8721L60.0387 26.7744ZM56.3666 24.7692H59.3703L57.8602 20.2719L56.3666 24.7692Z" fill="#1D1D26"/>
<path d="M31.9617 44.9719L33.8851 40.8078H35.9671L32.9329 46.6984V50.05H30.9969V46.6984L27.9627 40.8078H30.0511L31.9617 44.9719Z" fill="#1D1D26"/>
<path d="M40.687 48.1457H37.3481L36.7133 50.05H34.6884L38.1288 40.8078H39.8935L43.353 50.05H41.3281L40.687 48.1457ZM37.8622 46.6032H40.1728L39.0112 43.1437L37.8622 46.6032Z" fill="#1D1D26"/>
<path d="M46.3145 40.8078L48.6886 47.5109L51.0499 40.8078H53.5509V50.05H51.6402V47.5236L51.8306 43.1628L49.336 50.05H48.0284L45.5401 43.1691L45.7305 47.5236V50.05H43.8263V40.8078H46.3145Z" fill="#1D1D26"/>
<path d="M60.156 48.1457H56.8171L56.1823 50.05H54.1574L57.5979 40.8078H59.3625L62.822 50.05H60.7971L60.156 48.1457ZM57.3313 46.6032H59.6418L58.4802 43.1437L57.3313 46.6032Z" fill="#1D1D26"/>
<path d="M31.2635 53.8078L33.6375 60.5109L35.9988 53.8078H38.4998V63.05H36.5892V60.5236L36.7796 56.1628L34.285 63.05H32.9773L30.4891 56.1691L30.6795 60.5236V63.05H28.7752V53.8078H31.2635Z" fill="#1D1D26"/>
<path d="M47.3647 58.6384C47.3647 59.5482 47.2039 60.3459 46.8823 61.0314C46.5606 61.717 46.0994 62.246 45.4985 62.6184C44.9018 62.9908 44.2162 63.177 43.4418 63.177C42.6759 63.177 41.9925 62.9929 41.3915 62.6247C40.7906 62.2565 40.3251 61.7318 39.9951 61.0505C39.665 60.3649 39.4978 59.5778 39.4936 58.6892V58.2321C39.4936 57.3223 39.6565 56.5225 39.9824 55.8327C40.3124 55.1387 40.7758 54.6076 41.3725 54.2395C41.9734 53.8671 42.659 53.6809 43.4291 53.6809C44.1993 53.6809 44.8828 53.8671 45.4794 54.2395C46.0803 54.6076 46.5437 55.1387 46.8696 55.8327C47.1996 56.5225 47.3647 57.3202 47.3647 58.2258V58.6384ZM45.435 58.2194C45.435 57.2504 45.2615 56.514 44.9145 56.0104C44.5675 55.5069 44.0724 55.2551 43.4291 55.2551C42.7901 55.2551 42.2971 55.5047 41.9501 56.0041C41.6031 56.4992 41.4275 57.2271 41.4233 58.1877V58.6384C41.4233 59.5821 41.5968 60.3142 41.9438 60.8347C42.2908 61.3552 42.7901 61.6154 43.4418 61.6154C44.0808 61.6154 44.5717 61.3658 44.9145 60.8664C45.2573 60.3628 45.4308 59.6307 45.435 58.6701V58.2194Z" fill="#1D1D26"/>
<path d="M54.7696 55.3503H51.9386V63.05H50.0343V55.3503H47.2413V53.8078H54.7696V55.3503Z" fill="#1D1D26"/>
<path d="M62.8855 58.6384C62.8855 59.5482 62.7247 60.3459 62.403 61.0314C62.0814 61.717 61.6202 62.246 61.0193 62.6184C60.4226 62.9908 59.737 63.177 58.9626 63.177C58.1967 63.177 57.5132 62.9929 56.9123 62.6247C56.3114 62.2565 55.8459 61.7318 55.5158 61.0505C55.1858 60.3649 55.0186 59.5778 55.0144 58.6892V58.2321C55.0144 57.3223 55.1773 56.5225 55.5031 55.8327C55.8332 55.1387 56.2966 54.6076 56.8933 54.2395C57.4942 53.8671 58.1797 53.6809 58.9499 53.6809C59.7201 53.6809 60.4035 53.8671 61.0002 54.2395C61.6011 54.6076 62.0645 55.1387 62.3903 55.8327C62.7204 56.5225 62.8855 57.3202 62.8855 58.2258V58.6384ZM60.9558 58.2194C60.9558 57.2504 60.7823 56.514 60.4353 56.0104C60.0883 55.5069 59.5931 55.2551 58.9499 55.2551C58.3109 55.2551 57.8179 55.5047 57.4709 56.0041C57.1239 56.4992 56.9483 57.2271 56.9441 58.1877V58.6384C56.9441 59.5821 57.1176 60.3142 57.4646 60.8347C57.8116 61.3552 58.3109 61.6154 58.9626 61.6154C59.6016 61.6154 60.0925 61.3658 60.4353 60.8664C60.778 60.3628 60.9515 59.6307 60.9558 58.6701V58.2194Z" fill="#1D1D26"/>
</svg>
