<svg xmlns="http://www.w3.org/2000/svg" width="35.57" height="34.618" viewBox="0 0 35.57 34.618">
  <g id="shopping-cart" transform="translate(0 -6.028)">
    <g id="Group_2" data-name="Group 2" transform="translate(0 6.028)">
      <g id="Group_1" data-name="Group 1">
        <path id="Path_3" data-name="Path 3" d="M100.366,350.322a3.713,3.713,0,1,0,3.713,3.713A3.713,3.713,0,0,0,100.366,350.322Zm0,5.776a2.063,2.063,0,1,1,2.063-2.063A2.063,2.063,0,0,1,100.366,356.1Z" transform="translate(-89.02 -323.131)" fill="#428584"/>
        <path id="Path_4" data-name="Path 4" d="M298.9,350.322a3.713,3.713,0,1,0,3.713,3.713A3.713,3.713,0,0,0,298.9,350.322Zm0,5.776a2.063,2.063,0,1,1,2.063-2.063A2.063,2.063,0,0,1,298.9,356.1Z" transform="translate(-271.872 -323.131)" fill="#428584"/>
        <path id="Path_5" data-name="Path 5" d="M35.4,11.557a1.032,1.032,0,0,0-.66-.33L7.881,10.856,7.138,8.586A3.8,3.8,0,0,0,3.59,6.028H.825a.825.825,0,1,0,0,1.65H3.59A2.146,2.146,0,0,1,5.57,9.123l5.24,15.8-.413.949a3.961,3.961,0,0,0,.371,3.59A3.837,3.837,0,0,0,13.864,31.2h16.05a.825.825,0,1,0,0-1.65H13.864a2.1,2.1,0,0,1-1.733-.99,2.269,2.269,0,0,1-.206-1.981l.33-.743,17.371-1.815a4.539,4.539,0,0,0,3.92-3.466l1.981-8.293A.7.7,0,0,0,35.4,11.557ZM31.936,20.18a2.806,2.806,0,0,1-2.517,2.187L12.254,24.141,8.417,12.506l25.293.371Z" transform="translate(0 -6.028)" fill="#428584"/>
      </g>
    </g>
  </g>
</svg>
