<svg id="user" xmlns="http://www.w3.org/2000/svg" width="28.882" height="34.618" viewBox="0 0 28.882 34.618">
  <path id="Path_1" data-name="Path 1" d="M95.369,16.675a8.068,8.068,0,0,0,5.9-2.443,8.068,8.068,0,0,0,2.442-5.9,8.069,8.069,0,0,0-2.443-5.9,8.336,8.336,0,0,0-11.79,0,8.068,8.068,0,0,0-2.443,5.895,8.068,8.068,0,0,0,2.443,5.9A8.07,8.07,0,0,0,95.369,16.675Zm-4.461-12.8a6.307,6.307,0,0,1,8.921,0,6.028,6.028,0,0,1,1.849,4.461A6.028,6.028,0,0,1,99.83,12.8a6.306,6.306,0,0,1-8.921,0A6.027,6.027,0,0,1,89.06,8.337,6.027,6.027,0,0,1,90.909,3.877Zm0,0" transform="translate(-81.147)" fill="#428584"/>
  <path id="Path_2" data-name="Path 2" d="M28.812,257.214a20.594,20.594,0,0,0-.28-2.187,17.234,17.234,0,0,0-.538-2.2,10.864,10.864,0,0,0-.9-2.051A7.732,7.732,0,0,0,25.726,249a6.011,6.011,0,0,0-1.958-1.23,6.768,6.768,0,0,0-2.5-.452,2.538,2.538,0,0,0-1.355.575c-.406.265-.881.571-1.412.91a8.089,8.089,0,0,1-1.827.8,7.093,7.093,0,0,1-4.468,0,8.064,8.064,0,0,1-1.825-.8c-.525-.336-1-.642-1.413-.911a2.535,2.535,0,0,0-1.355-.575,6.76,6.76,0,0,0-2.5.453A6.006,6.006,0,0,0,3.154,249a7.733,7.733,0,0,0-1.363,1.776,10.884,10.884,0,0,0-.9,2.051,17.275,17.275,0,0,0-.538,2.2,20.454,20.454,0,0,0-.28,2.188c-.046.661-.069,1.349-.069,2.044a5.748,5.748,0,0,0,1.707,4.349,6.145,6.145,0,0,0,4.4,1.6H22.775a6.146,6.146,0,0,0,4.4-1.6,5.746,5.746,0,0,0,1.707-4.349C28.881,258.561,28.858,257.873,28.812,257.214Zm-3.036,4.924a4.137,4.137,0,0,1-3,1.046H6.107a4.138,4.138,0,0,1-3-1.045,3.754,3.754,0,0,1-1.077-2.879c0-.649.021-1.289.064-1.9a18.449,18.449,0,0,1,.254-1.97,15.236,15.236,0,0,1,.473-1.939,8.861,8.861,0,0,1,.736-1.668,5.732,5.732,0,0,1,1-1.313,3.987,3.987,0,0,1,1.3-.81,4.668,4.668,0,0,1,1.6-.308c.071.038.2.11.4.244.417.272.9.582,1.429.921a10.051,10.051,0,0,0,2.293,1.024,9.12,9.12,0,0,0,5.716,0,10.062,10.062,0,0,0,2.294-1.025c.544-.348,1.011-.649,1.428-.921.2-.133.331-.206.4-.244a4.671,4.671,0,0,1,1.6.308,3.993,3.993,0,0,1,1.3.81,5.717,5.717,0,0,1,1,1.313,8.831,8.831,0,0,1,.736,1.667,15.2,15.2,0,0,1,.473,1.939,18.6,18.6,0,0,1,.254,1.971h0c.043.612.065,1.253.065,1.9A3.753,3.753,0,0,1,25.775,262.138Zm0,0" transform="translate(0 -230.595)" fill="#428584"/>
</svg>
